<mxfile host="app.diagrams.net" modified="2023-07-01T13:55:39.861Z" agent="Mozilla/5.0 (Windows NT 10.0; Win64; x64) AppleWebKit/537.36 (KHTML, like Gecko) Chrome/110.0.0.0 Safari/537.36" version="21.5.2" etag="_hUNFUbFoYxusvaYM7PZ" type="github">
  <diagram name="第 1 页" id="q1zerqp8TTQukYcQDvJu">
    <mxGraphModel>
      <root>
        <mxCell id="0" />
        <mxCell id="1" parent="0" />
      </root>
    </mxGraphModel>
  </diagram>
</mxfile>
